<svg id="visual" viewBox="0 0 900 600" width="900" height="600" xmlns="http://www.w3.org/2000/svg" xmlns:xlink="http://www.w3.org/1999/xlink" version="1.1"><rect width="900" height="600" fill="#6ECCAF"></rect><g><g transform="translate(179 494)"><path d="M87.9 -24.2C101.3 12.8 90.9 61.8 59.7 85.1C28.6 108.5 -23.4 106.1 -56.3 81.3C-89.1 56.6 -102.8 9.3 -90.2 -26.5C-77.7 -62.3 -38.8 -86.8 -0.8 -86.5C37.2 -86.2 74.4 -61.3 87.9 -24.2Z" stroke="#344D67" fill="none" stroke-width="20"></path></g><g transform="translate(474 547)"><path d="M67.2 -21.4C76.3 6.2 65.5 40.8 41.1 59.1C16.7 77.4 -21.3 79.5 -44 62.6C-66.6 45.6 -74 9.6 -64.1 -19C-54.2 -47.7 -27.1 -68.9 1 -69.2C29 -69.6 58.1 -48.9 67.2 -21.4Z" stroke="#344D67" fill="none" stroke-width="20"></path></g><g transform="translate(767 19)"><path d="M69.3 -24.5C78.5 6 67 41.2 41.5 60.4C16.1 79.7 -23.3 83 -46.5 65.8C-69.7 48.5 -76.7 10.6 -66.3 -21.5C-55.8 -53.6 -27.9 -79.9 1.1 -80.3C30 -80.6 60 -54.9 69.3 -24.5Z" stroke="#344D67" fill="none" stroke-width="20"></path></g></g></svg>