<svg id="visual" viewBox="0 0 900 600" width="900" height="600" xmlns="http://www.w3.org/2000/svg" xmlns:xlink="http://www.w3.org/1999/xlink" version="1.1"><rect width="900" height="600" fill="#00E7FF"></rect><g><g transform="translate(471 66)"><path d="M96.1 -33.4C109 8.5 93.2 57.5 59.2 82.5C25.2 107.4 -27.1 108.3 -58.6 84.5C-90.2 60.7 -101.1 12.1 -87.9 -30.2C-74.6 -72.5 -37.3 -108.6 2.1 -109.3C41.6 -110 83.2 -75.3 96.1 -33.4Z" stroke="#FFEBAD" fill="none" stroke-width="20"></path></g><g transform="translate(890 577)"><path d="M60.9 -22.7C68.7 4.1 57.6 34 36.4 49.3C15.1 64.5 -16.3 65 -36 50.5C-55.7 35.9 -63.7 6.3 -55.8 -20.7C-47.8 -47.8 -23.9 -72.2 1.3 -72.7C26.6 -73.1 53.2 -49.5 60.9 -22.7Z" stroke="#FFEBAD" fill="none" stroke-width="20"></path></g><g transform="translate(163 34)"><path d="M62.5 -17.6C72 9 64.6 43.8 41.7 61.5C18.8 79.1 -19.6 79.5 -45.7 61C-71.7 42.5 -85.4 5.2 -75.7 -21.6C-66 -48.4 -33 -64.6 -3.3 -63.6C26.5 -62.5 53 -44.2 62.5 -17.6Z" stroke="#FFEBAD" fill="none" stroke-width="20"></path></g></g></svg>